# This file uses centimeters as units for non-parametric coordinates.

mtllib cristalLamparas.mtl
g default
v 28.292288 18.658026 28.059824
v 28.292288 18.658026 29.399202
v 27.802839 22.246876 29.888649
v 27.802839 22.246876 27.570375
v 27.805481 22.248058 27.573330
v 28.295023 18.658501 28.062872
v 29.635027 18.658501 28.062872
v 30.124571 22.248058 27.573330
v 30.101072 22.249043 27.566847
v 29.610792 18.654083 28.057127
v 29.610792 18.654083 29.401897
v 30.101072 22.249043 29.892178
v 28.291716 18.653257 29.401327
v 27.801149 22.250317 29.891893
v 30.128901 22.250317 29.891893
v 29.638334 18.653257 29.401327
v -29.710798 18.653257 29.401327
v -30.201365 22.250317 29.891893
v -27.873613 22.250317 29.891893
v -28.364180 18.653257 29.401327
v -30.197033 22.248058 27.573330
v -29.707491 18.658501 28.062872
v -28.367487 18.658501 28.062872
v -27.877943 22.248058 27.573330
v -29.710226 18.658026 28.059824
v -29.710226 18.658026 29.399202
v -30.199675 22.246876 29.888649
v -30.199675 22.246876 27.570375
v -27.901442 22.249043 27.566847
v -28.391722 18.654083 28.057127
v -28.391722 18.654083 29.401897
v -27.901442 22.249043 29.892178
v -27.901442 22.249043 -29.960365
v -28.391722 18.654083 -29.470085
v -28.391722 18.654083 -28.125315
v -27.901442 22.249043 -27.635035
v -29.710226 18.658026 -29.467388
v -29.710226 18.658026 -28.128010
v -30.199675 22.246876 -27.638563
v -30.199675 22.246876 -29.956837
v -29.710798 18.653257 -28.125885
v -30.201365 22.250317 -27.635319
v -27.873613 22.250317 -27.635319
v -28.364180 18.653257 -28.125885
v -30.197033 22.248058 -29.953882
v -29.707491 18.658501 -29.464340
v -28.367487 18.658501 -29.464340
v -27.877943 22.248058 -29.953882
v 28.291716 18.653257 -28.125885
v 27.801149 22.250317 -27.635319
v 30.128901 22.250317 -27.635319
v 29.638334 18.653257 -28.125885
v 28.292288 18.658026 -29.467388
v 28.292288 18.658026 -28.128010
v 27.802839 22.246876 -27.638563
v 27.802839 22.246876 -29.956837
v 27.805481 22.248058 -29.953882
v 28.295023 18.658501 -29.464340
v 29.635027 18.658501 -29.464340
v 30.124571 22.248058 -29.953882
v 30.101072 22.249043 -29.960365
v 29.610792 18.654083 -29.470085
v 29.610792 18.654083 -28.125315
v 30.101072 22.249043 -27.635035
vt 0.383588 0.019878
vt 0.616412 0.013586
vt 0.616413 0.236414
vt 0.383587 0.230122
vt 0.385960 0.269825
vt 0.618830 0.263549
vt 0.618830 0.486451
vt 0.385960 0.480175
vt 0.383389 0.519422
vt 0.616611 0.513270
vt 0.616611 0.736730
vt 0.383389 0.730578
vt 0.383321 0.769266
vt 0.616679 0.763162
vt 0.616679 0.986838
vt 0.383321 0.980734
vt 0.383321 0.769266
vt 0.616679 0.763162
vt 0.616679 0.986838
vt 0.383321 0.980734
vt 0.385960 0.269825
vt 0.618830 0.263549
vt 0.618830 0.486451
vt 0.385960 0.480175
vt 0.383588 0.019878
vt 0.616412 0.013586
vt 0.616413 0.236414
vt 0.383587 0.230122
vt 0.383389 0.519422
vt 0.616611 0.513270
vt 0.616611 0.736730
vt 0.383389 0.730578
vt 0.383389 0.519422
vt 0.616611 0.513270
vt 0.616611 0.736730
vt 0.383389 0.730578
vt 0.383588 0.019878
vt 0.616412 0.013586
vt 0.616413 0.236414
vt 0.383587 0.230122
vt 0.383321 0.769266
vt 0.616679 0.763162
vt 0.616679 0.986838
vt 0.383321 0.980734
vt 0.385960 0.269825
vt 0.618830 0.263549
vt 0.618830 0.486451
vt 0.385960 0.480175
vt 0.383321 0.769266
vt 0.616679 0.763162
vt 0.616679 0.986838
vt 0.383321 0.980734
vt 0.383588 0.019878
vt 0.616412 0.013586
vt 0.616413 0.236414
vt 0.383587 0.230122
vt 0.385960 0.269825
vt 0.618830 0.263549
vt 0.618830 0.486451
vt 0.385960 0.480175
vt 0.383389 0.519422
vt 0.616611 0.513270
vt 0.616611 0.736730
vt 0.383389 0.730578
vn -0.990831 -0.135104 0.000000
vn -0.990831 -0.135104 0.000000
vn -0.990831 -0.135104 0.000000
vn -0.990831 -0.135104 0.000000
vn 0.000000 -0.135104 -0.990831
vn 0.000000 -0.135104 -0.990831
vn 0.000000 -0.135104 -0.990831
vn 0.000000 -0.135104 -0.990831
vn 0.990831 -0.135104 0.000000
vn 0.990831 -0.135104 0.000000
vn 0.990831 -0.135104 0.000000
vn 0.990831 -0.135104 0.000000
vn 0.000000 -0.135104 0.990831
vn 0.000000 -0.135104 0.990831
vn 0.000000 -0.135104 0.990831
vn 0.000000 -0.135104 0.990831
vn 0.000000 -0.135104 0.990831
vn 0.000000 -0.135104 0.990831
vn 0.000000 -0.135104 0.990831
vn 0.000000 -0.135104 0.990831
vn 0.000000 -0.135104 -0.990831
vn 0.000000 -0.135104 -0.990831
vn 0.000000 -0.135104 -0.990831
vn 0.000000 -0.135104 -0.990831
vn -0.990831 -0.135104 0.000000
vn -0.990831 -0.135104 0.000000
vn -0.990831 -0.135104 0.000000
vn -0.990831 -0.135104 0.000000
vn 0.990831 -0.135104 0.000000
vn 0.990831 -0.135104 0.000000
vn 0.990831 -0.135104 0.000000
vn 0.990831 -0.135104 0.000000
vn 0.990831 -0.135104 0.000000
vn 0.990831 -0.135104 0.000000
vn 0.990831 -0.135104 0.000000
vn 0.990831 -0.135104 0.000000
vn -0.990831 -0.135104 0.000000
vn -0.990831 -0.135104 0.000000
vn -0.990831 -0.135104 0.000000
vn -0.990831 -0.135104 0.000000
vn 0.000000 -0.135104 0.990831
vn 0.000000 -0.135104 0.990831
vn 0.000000 -0.135104 0.990831
vn 0.000000 -0.135104 0.990831
vn 0.000000 -0.135104 -0.990831
vn 0.000000 -0.135104 -0.990831
vn 0.000000 -0.135104 -0.990831
vn 0.000000 -0.135104 -0.990831
vn 0.000000 -0.135104 0.990831
vn 0.000000 -0.135104 0.990831
vn 0.000000 -0.135104 0.990831
vn 0.000000 -0.135104 0.990831
vn -0.990831 -0.135104 0.000000
vn -0.990831 -0.135104 0.000000
vn -0.990831 -0.135104 0.000000
vn -0.990831 -0.135104 0.000000
vn 0.000000 -0.135104 -0.990831
vn 0.000000 -0.135104 -0.990831
vn 0.000000 -0.135104 -0.990831
vn 0.000000 -0.135104 -0.990831
vn 0.990831 -0.135104 0.000000
vn 0.990831 -0.135104 0.000000
vn 0.990831 -0.135104 0.000000
vn 0.990831 -0.135104 0.000000
s off
g polySurface251
usemtl Lamparas:phong2SG
f 2/1/1 3/2/2 4/3/3 1/4/4
f 6/5/5 5/6/6 8/7/7 7/8/8
f 10/9/9 9/10/10 12/11/11 11/12/12
f 16/13/13 15/14/14 14/15/15 13/16/16
f 20/17/17 19/18/18 18/19/19 17/20/20
f 22/21/21 21/22/22 24/23/23 23/24/24
f 26/25/25 27/26/26 28/27/27 25/28/28
f 30/29/29 29/30/30 32/31/31 31/32/32
f 34/33/33 33/34/34 36/35/35 35/36/36
f 38/37/37 39/38/38 40/39/39 37/40/40
f 44/41/41 43/42/42 42/43/43 41/44/44
f 46/45/45 45/46/46 48/47/47 47/48/48
f 52/49/49 51/50/50 50/51/51 49/52/52
f 54/53/53 55/54/54 56/55/55 53/56/56
f 58/57/57 57/58/58 60/59/59 59/60/60
f 62/61/61 61/62/62 64/63/63 63/64/64
